<svg width="220" height="96" viewBox="0 0 220 96" fill="none" xmlns="http://www.w3.org/2000/svg" role="img" aria-labelledby="title desc">
  <title id="title">Logo Biblioteca Docente</title>
  <desc id="desc">Un libro abierto con rutas y nodos que simbolizan edición colaborativa y aprendizaje.</desc>
  <defs>
    <linearGradient id="bg" x1="18" y1="14" x2="180" y2="84" gradientUnits="userSpaceOnUse">
      <stop stop-color="#F6FAFF"/>
      <stop offset="1" stop-color="#D7E6FF"/>
    </linearGradient>
    <linearGradient id="accent" x1="132" y1="16" x2="179" y2="74" gradientUnits="userSpaceOnUse">
      <stop stop-color="#7FB5FF"/>
      <stop offset="1" stop-color="#2457C5"/>
    </linearGradient>
  </defs>
  <rect x="8" y="10" width="190" height="76" rx="24" fill="url(#bg)"/>
  <path d="M42 62.5C42 47.036 54.536 34.5 70 34.5H99V70H70C54.536 70 42 69.964 42 62.5Z" fill="#163F97"/>
  <path d="M156 62.5C156 47.036 143.464 34.5 128 34.5H99V70H128C143.464 70 156 69.964 156 62.5Z" fill="url(#accent)"/>
  <path d="M99 28V70" stroke="#F6FAFF" stroke-width="4.5" stroke-linecap="round"/>
  <path d="M60 48.5H88" stroke="#D8E7FF" stroke-width="4" stroke-linecap="round"/>
  <path d="M110 48.5H136" stroke="#E6F0FF" stroke-width="4" stroke-linecap="round"/>
  <path d="M60 56.5H84" stroke="#D8E7FF" stroke-width="4" stroke-linecap="round"/>
  <path d="M114 56.5H132" stroke="#E6F0FF" stroke-width="4" stroke-linecap="round"/>
  <circle cx="147" cy="30" r="7" fill="#F18A3A"/>
  <circle cx="167" cy="46" r="5.5" fill="#2457C5"/>
  <circle cx="151" cy="63" r="5.5" fill="#163F97"/>
  <path d="M146.5 35.5L163.5 43.5" stroke="#7EA7EA" stroke-width="3.5" stroke-linecap="round"/>
  <path d="M164 50.5L153 59.5" stroke="#7EA7EA" stroke-width="3.5" stroke-linecap="round"/>
  <path d="M24 26.5C24 20.701 28.701 16 34.5 16H56.5C62.299 16 67 20.701 67 26.5V28H24V26.5Z" fill="#2457C5" fill-opacity="0.16"/>
  <text x="24" y="24" fill="#16304F" font-family="Segoe UI, Helvetica Neue, Arial, sans-serif" font-size="12" font-weight="700">BIBLIOTECA</text>
  <text x="24" y="83" fill="#5D708B" font-family="Segoe UI, Helvetica Neue, Arial, sans-serif" font-size="11" font-weight="600">material docente vivo</text>
</svg>
